/* XPM */
static char *qterm_16x16[] = {
/* columns rows colors chars-per-pixel */
"16 16 221 2",
"   c #000000",
".  c #000100",
"X  c #010101",
"o  c #020202",
"O  c #030303",
"+  c #050505",
"@  c #060606",
"#  c #0B0B0A",
"$  c #0B0B0B",
"%  c #0F0F0E",
"&  c #10100F",
"*  c #111110",
"=  c #121211",
"-  c #161615",
";  c #171716",
":  c #181817",
">  c #191A18",
",  c #1C1C1C",
"<  c #20201F",
"1  c #212120",
"2  c #232321",
"3  c #242422",
"4  c #252524",
"5  c #262624",
"6  c #272726",
"7  c #2E2E2C",
"8  c #2F2F2F",
"9  c #31312F",
"0  c #303030",
"q  c #383835",
"w  c #3B3B38",
"e  c #434340",
"r  c #4A4A46",
"t  c #4E4E4D",
"y  c #53534F",
"u  c #555551",
"i  c #5A5A56",
"p  c #6C7C51",
"a  c #6C6C67",
"s  c #6D6D68",
"d  c #6F6E68",
"f  c #767670",
"g  c #7D7C7C",
"h  c #146CAD",
"j  c #156FB1",
"k  c #146FB5",
"l  c #1971AE",
"z  c #1571B9",
"x  c #1572B8",
"c  c #1672B9",
"v  c #1F76B5",
"b  c #1A77BF",
"n  c #1C76BE",
"m  c #1C77BE",
"M  c #1878BF",
"N  c #1C78BF",
"B  c #1F7CBC",
"V  c #2270AD",
"C  c #2575AE",
"Z  c #2876A5",
"A  c #2C76A6",
"S  c #2977A8",
"D  c #2F7CA4",
"F  c #2375B4",
"G  c #2775B2",
"H  c #2677B6",
"J  c #227ABB",
"K  c #277BBA",
"L  c #257FBF",
"P  c #2874B1",
"I  c #2876B4",
"U  c #3578A7",
"Y  c #1B79C0",
"T  c #1B7AC1",
"R  c #1B7BC1",
"E  c #1B7CC3",
"W  c #1A7FC6",
"Q  c #1C79C0",
"!  c #1C79C1",
"~  c #1C7BC1",
"^  c #1C7BC2",
"/  c #1C7CC2",
"(  c #1C7DC3",
")  c #1C7DC4",
"_  c #1C7EC4",
"`  c #1C7FC5",
"'  c #1D7FC5",
"]  c #1F7EC4",
"[  c #467A8B",
"{  c #4E7D88",
"}  c #5A877E",
"|  c #658A77",
" . c #718F6A",
".. c #3582A7",
"X. c #3583AA",
"o. c #3984B8",
"O. c #3B8ABF",
"+. c #2281C6",
"@. c #2183C8",
"#. c #2985C6",
"$. c #2A87CA",
"%. c #2A8CD0",
"&. c #3486C2",
"*. c #3788C3",
"=. c #348DCC",
"-. c #3C87C0",
";. c #3C88C1",
":. c #3D88C1",
">. c #3F89C1",
",. c #3491CF",
"<. c #588288",
"1. c #4A86AE",
"2. c #578DAD",
"3. c #5885A4",
"4. c #5E8AAC",
"5. c #508DB4",
"6. c #508FB9",
"7. c #588BB1",
"8. c #6C9790",
"9. c #618BAB",
"0. c #6092AD",
"q. c #6797B3",
"w. c #6A9DBC",
"e. c #7393AB",
"r. c #719CB3",
"t. c #7CA8BE",
"y. c #7DA8BE",
"u. c #4C97C8",
"i. c #619EC4",
"p. c #60A0C5",
"a. c #65A0C4",
"s. c #70A7C6",
"d. c #71A6C7",
"f. c #7BACC8",
"g. c #9D8E2D",
"h. c #B1951C",
"j. c #B3951C",
"k. c #80817A",
"l. c #86857E",
"z. c #C6990A",
"x. c #888983",
"c. c #93938D",
"v. c #95958D",
"b. c #999890",
"n. c #9E9D97",
"m. c #9E9E96",
"M. c #9E9E9A",
"N. c #809AAF",
"B. c #879DAD",
"V. c #889DAE",
"C. c #8A9FAF",
"Z. c #81A2B1",
"A. c #86A1B7",
"S. c #89A7B3",
"D. c #88A6BE",
"F. c #89A9B6",
"G. c #8FAABD",
"H. c #93A2AD",
"J. c #9BA9B3",
"K. c #9AA9B4",
"L. c #9FABB4",
"P. c #99ADBB",
"I. c #9BACB9",
"U. c #9EAEBA",
"Y. c #9FAFBA",
"T. c #99B0BB",
"R. c #A0A199",
"E. c #A3A39B",
"W. c #A4A49B",
"Q. c #A8A89F",
"!. c #A0AFBA",
"~. c #A2B0BB",
"^. c #B0AFA6",
"/. c #B0B2A9",
"(. c #B1B0AF",
"). c #B4B3AA",
"_. c #B4B5AC",
"`. c #B4B6AD",
"'. c #B5B7AE",
"]. c #BAB9B2",
"[. c #BEBFB5",
"{. c #BFBFB7",
"}. c #88B4CB",
"|. c #98B0C3",
" X c #9BB7C6",
".X c #9CB7C0",
"XX c #9EB9C5",
"oX c #A5B4C0",
"OX c #A9BDC1",
"+X c #A9BDC4",
"@X c #BEC0B8",
"#X c #A4C1D0",
"$X c #AEC6D1",
"%X c #B2C1C1",
"&X c #B3C8CC",
"*X c #BCC6C2",
"=X c #C1C1B8",
"-X c #C4C6BC",
";X c #C6C7BE",
":X c #C4C3C2",
">X c #C5CDC8",
",X c #C7CFC9",
"<X c #C7CECD",
"1X c #CCCDC2",
"2X c #CBCBC8",
"3X c #C9CFC9",
"4X c #C2CFD2",
"5X c #CFD0C6",
"6X c #C8D0D0",
"7X c #CDD6D6",
"8X c #CFD6D5",
"9X c #D2D2CA",
"0X c #D7D8CE",
"qX c #DCDCD1",
"wX c #D8DDDC",
"eX c #DFE2D7",
"rX c #E0E3DA",
"tX c #E1E1DD",
"yX c #E4E3DF",
"uX c #EEEEE7",
"iX c None",
/* pixels */
"iXiXiX$ t M.].).^.m.e @ iXiXiXiX",
"iXiX8 (.tX6X+X.XOX,X1Xk.: iXiXiX",
"iX0 2X7Xt.u.=.$.#.O.t.3Xv.; iXiX",
", :X4Xp.,.@.] ` ` ` +.i.>Xf @ iX",
"g wXa.%.W ` ^ ^ ^ ! ! ] d.@X8   ",
"yXXX8. .} B W ^ ^ ! ! b L &Xd   ",
"uXw.| z.p o.*.&.:.:.:.O.J }.b.$ ",
"rX6.X.h.{ |.P.G.!.~.Y.!.7.s.Q.= ",
"eX5...h.<.~.H.K.e.I.J.L.9.f.E.% ",
"qXr.U g.[ D.V.N.4.A.V.C.3.#Xl.@ ",
"m.@XZ Z H L G H F I P V 1.<Xr   ",
"w @XZ.l b ! ! ! N m c C $Xv.=   ",
"iXi :XF.A l c c k h U P.9Xu     ",
"iX@ y '.*XF.0.2.q. X8X9X0X`.q iX",
"iXiXX 3 a E.@X-X@Xm.s R.`./.x.4 ",
"iXiXiX    = 4 7 4 %   > 2 < 2 ; "
};
