/* XPM */
static char *qterm_32x32[] = {
/* columns rows colors chars-per-pixel */
"32 32 222 2",
"   c #000000",
".  c #0C0C0B",
"X  c #131312",
"o  c #181817",
"O  c #1F1F1E",
"+  c #242423",
"@  c #2B2B29",
"#  c #333331",
"$  c #393936",
"%  c #3C3C3A",
"&  c #004D7E",
"*  c #0E4F76",
"=  c #084E78",
"-  c #3B5D5B",
";  c #3B6163",
":  c #7A7834",
">  c #444542",
",  c #494946",
"<  c #4D4D49",
"1  c #52534E",
"2  c #535350",
"3  c #5A5A56",
"4  c #666661",
"5  c #6A6B66",
"6  c #6D6E69",
"7  c #757670",
"8  c #7A7B75",
"9  c #015287",
"0  c #02568B",
"q  c #065A8D",
"w  c #0E5885",
"e  c #0C5B8C",
"r  c #025992",
"t  c #035E9A",
"y  c #0C5A93",
"u  c #145587",
"i  c #155E98",
"p  c #05629E",
"a  c #17619A",
"s  c #18629D",
"d  c #0163A3",
"f  c #0466A9",
"g  c #0068AC",
"h  c #0E68A4",
"j  c #0A6AAA",
"k  c #0873BD",
"l  c #176CAE",
"z  c #1867A0",
"x  c #1868A5",
"c  c #196AAA",
"v  c #106EB3",
"b  c #1271B5",
"n  c #1475BA",
"m  c #1C74B4",
"M  c #1C75BD",
"N  c #1C79BE",
"B  c #216085",
"V  c #22658C",
"C  c #246F9C",
"Z  c #286B91",
"A  c #3F6F87",
"S  c #386F9A",
"D  c #3C779B",
"F  c #277EB7",
"G  c #237CBE",
"H  c #287FB7",
"J  c #377EAA",
"K  c #3A7EA7",
"L  c #167DC3",
"P  c #1D7BC2",
"I  c #1C7FC8",
"U  c #237EC1",
"Y  c #4F788C",
"T  c #4E7592",
"R  c #5B7C95",
"E  c #627F95",
"W  c #7E894F",
"Q  c #7F807A",
"!  c #2680B8",
"~  c #2880B7",
"^  c #2881B8",
"/  c #3B82AD",
"(  c #3080BE",
")  c #3984B2",
"_  c #3E8AB7",
"`  c #3A8BBC",
"'  c #1C80C5",
"]  c #1984CB",
"[  c #198AD6",
"{  c #2382C8",
"}  c #2981C2",
"|  c #2987CE",
" . c #2E8BCE",
".. c #2088D2",
"X. c #2E8DD4",
"o. c #2A92DD",
"O. c #3287C8",
"+. c #338AC3",
"@. c #3A86C0",
"#. c #3F8AC1",
"$. c #3A8DCB",
"%. c #3D90CF",
"&. c #3591D4",
"*. c #3C96D4",
"=. c #3597E0",
"-. c #3D9CE4",
";. c #5F8E87",
":. c #5B849A",
">. c #5F899B",
",. c #4082AB",
"<. c #4186B9",
"1. c #5381A2",
"2. c #5188A6",
"3. c #5B8FAB",
"4. c #658796",
"5. c #61819A",
"6. c #61889C",
"7. c #6D8B96",
"8. c #6C8D9B",
"9. c #7F8D8F",
"0. c #738A94",
"q. c #72889A",
"w. c #78949E",
"e. c #6E90A2",
"r. c #6898BD",
"t. c #7C97A0",
"y. c #79A6BC",
"u. c #408AC1",
"i. c #4D90C2",
"p. c #5293C3",
"a. c #4BA0D2",
"s. c #52A6DE",
"d. c #59ADDD",
"f. c #43A1E7",
"g. c #44A5E9",
"h. c #5CACE2",
"j. c #5CB4E9",
"k. c #65B2E6",
"l. c #66B4EA",
"z. c #74BFEC",
"x. c #BF9C18",
"c. c #83837D",
"v. c #C1970C",
"b. c #CA9B06",
"n. c #CB9C08",
"m. c #C09D18",
"M. c #D7A100",
"N. c #868680",
"B. c #878881",
"V. c #898A83",
"C. c #8E8F88",
"Z. c #8C9A9A",
"A. c #94958E",
"S. c #949993",
"D. c #9A9B93",
"F. c #8296A5",
"G. c #8A9CA4",
"H. c #8B9CA9",
"J. c #8AAA9D",
"K. c #8FA1AE",
"L. c #93A3AB",
"P. c #90A8AD",
"I. c #95ABB0",
"U. c #9FB2B3",
"Y. c #A1A29A",
"T. c #A4A8A3",
"R. c #A3ADAA",
"E. c #AAABA3",
"W. c #A1ACB3",
"Q. c #A1AFB9",
"!. c #ABB2AE",
"~. c #A5B2BD",
"^. c #A9B1B7",
"/. c #AEB5BB",
"(. c #ACB9B7",
"). c #B3B4AB",
"_. c #B6BBBD",
"`. c #BBBCB3",
"'. c #B9BCBD",
"]. c #8BADC2",
"[. c #87B0C4",
"{. c #94B5CA",
"}. c #A4B7C5",
"|. c #AEBCC3",
" X c #B6BDC3",
".X c #BABEC2",
"XX c #BCC3BE",
"oX c #BBC1C4",
"OX c #C1C3B9",
"+X c #C6C8BE",
"@X c #C2C4C5",
"#X c #C5C6C8",
"$X c #C7C9C0",
"%X c #C4CEC9",
"&X c #CBCCC2",
"*X c #C8C8C8",
"=X c #CFD0C6",
"-X c #D0D1C7",
";X c #D4D5CB",
":X c #D7D8CD",
">X c #D8D9CF",
",X c #D5DBD3",
"<X c #DBDCD1",
"1X c #DFE0D5",
"2X c #D9E4E0",
"3X c #E0E1D6",
"4X c #E3E4DA",
"5X c #E6E8DC",
"6X c #E8EADE",
"7X c #E0E8E2",
"8X c #E3E9E9",
"9X c #EBECE2",
"0X c #E8EDEB",
"qX c #E9EEF1",
"wX c #EFF0E5",
"eX c #F0F1E5",
"rX c #F2F3EA",
"tX c #F9FAEE",
"yX c #F4F6F2",
"uX c #FCFCF5",
"iX c #FEFEFC",
"pX c None",
/* pixels */
"pXpXpXpXpXpXpXpXpXpXpXpXpXrX4X>X5XpXpXpXpXpXpXpXpXpXpXpXpXpXpXpX",
"pXpXpXpXpXpXpXpXpXuXiXiXuXuXuXuXtXwX6X1X+XpXpXpXpXpXpXpXpXpXpXpX",
"pXpXpXpXpXpXpXiXiXiXuX0X4X,X-X-X;X1X5X6X5X;X).  pXpXpXpXpXpXpXpX",
"pXpXpXpXpXiXiXiXyX1XOXD.C.>.:.:.7.S.).&X>X4X>XXX1 pXpXpXpXpXpXpX",
"pXpXpXpXiXiXiX4X).0.K &.g.g.-.=.o.[ N 2.R.+X>X>X`.6   pXpXpXpXpX",
"pXpXpXiXiXiX-XZ./ j.l.a.{ ' P ' P { X...] 3.XX:X>X).1   pXpXpXpX",
"pXpXpXiXiX&X7.a.z.X.' ' ' ' ' ' ' P P P { X.` XX>X;XY.o   pXpXpX",
"pXpXiXiX;X7.d.h.' ' ' ' ' P P ' P P P P P P &.+.@X<X&X8     pXpX",
"pXiXiX7XZ.a.s.' ' ' ' ' ' P ' P P P P P P P U U _ :X<XE.$   pXpX",
"pXiXuX`.) l.' ' ' ' ' ' ' P P P P P P P P P P P ' y.3X&X8     pX",
"uXiX5X8.h.{ ' ' ' P ' P { P P P P P P P P P M P L n ,X>XY.O   pX",
"iXiX$XJ J.x.x.x.x.W N { P P P P P P P P P P P U P k [.4X`.<     ",
"uXyXR.$.;.x.M.M.v.: m P P P P P P U U P U N N U N n _ 9X&X6     ",
"uX9Xw.%.P Z M.M.- s G p.p.} } p.J u.i.p.@.p.U p.H L j rX;X8     ",
"uX3X6.$.L ^ M.M.; ' }.@XoX}.<.*X XW. X#X/.*X~.*X}.l g 2X<XV.    ",
"tX1X:.O.L ^ M.M.; } %XW.L.*X1.*X*XH. X@XE *XE @X Xi g 1X3XC..   ",
"tX3X6.G L ! M.M.; O.*X#X.X XR *XL.u  X@XE *XE #X Xl f 8X3Xc..   ",
"wX4Xw.F P ^ M.M.; U *XW.R K.R *XH.c .X@XE *XE #X Xi s yX;XE     ",
"5X5X!.h ' ! M.M.; U #X~.K.*XT *XH.c  X@XE *XE #X Xy J yX+X4     ",
"3X6X+XZ N H n.b.; U r..X#Xq.S .XF.c |. XR .XR .X~.9 {.yXE.1     ",
"OX5X>Xw.h P c s x P N x i s M c i m c i c i s s y u yX4XV.+     ",
"pX>X4X+XV b P P N N N N P M P M P P P P P P M M d ].uX`.4       ",
"pX`.<X>XR.y b P P N P N N P N N M M P M m M l f D iX3XV.#       ",
"pX  OX<X;XG.r v P P M P P N M N M M m M M M f V qX9XY.3       pX",
"pXpXc.OX<X:XL.w d n N N N N N M M M M M v t B qXyX`.6 .       pX",
"pXpX  c.XX>X>XXXY 0 j n M M N N M m v d & 6.XX&X<X$XA..     pXpX",
"pXpXpX  7 ).;X>X1X(.Y = 9 r t t r 9 * e.0XiX;XT.$X<X-XS.o   pXpX",
"pXpXpXpX  > D.+X:X3X6X6X%XU.P.I.|.8XiXiXrX:X<X&X<X<X<X&XD..   pX",
"pXpXpXpXpX  X 4 D.`.;X<X5XwXeX0XwX9X1X+XY.V.&X<X5X5X3X>X&XC.    ",
"pXpXpXpXpXpX    X 1 8 D.Y.).).).E.D.N.5 > X C.E.D.D.D.D.D.Y.8   ",
"pXpXpXpXpXpXpX        X $ > , , > # X       . % @ @ @ @ @ @ @ . ",
"pXpXpXpXpXpXpXpXpX                                              "
};
